<?xml version="1.0" encoding="UTF-8" standalone="no"?>
<!-- Generator: Adobe Illustrator 19.1.0, SVG Export Plug-In . SVG Version: 6.00 Build 0)  -->

<svg
   xmlns:dc="http://purl.org/dc/elements/1.1/"
   xmlns:cc="http://creativecommons.org/ns#"
   xmlns:rdf="http://www.w3.org/1999/02/22-rdf-syntax-ns#"
   xmlns:svg="http://www.w3.org/2000/svg"
   xmlns="http://www.w3.org/2000/svg"
   xmlns:sodipodi="http://sodipodi.sourceforge.net/DTD/sodipodi-0.dtd"
   xmlns:inkscape="http://www.inkscape.org/namespaces/inkscape"
   version="1.1"
   id="Layer_1"
   x="0px"
   y="0px"
   viewBox="0 0 344.3035 79.900002"
   xml:space="preserve"
   inkscape:version="0.91 r13725"
   sodipodi:docname="influxdb_logo.svg"
   width="344.3035"
   height="79.900002"><metadata
     id="metadata3535"><rdf:RDF><cc:Work
         rdf:about=""><dc:format>image/svg+xml</dc:format><dc:type
           rdf:resource="http://purl.org/dc/dcmitype/StillImage" /><dc:title></dc:title></cc:Work></rdf:RDF></metadata><defs
     id="defs3533"><clipPath
       clipPathUnits="userSpaceOnUse"
       id="clipPath4559"><rect
         style="fill:none;fill-rule:evenodd;stroke:#000000;stroke-width:1px;stroke-linecap:butt;stroke-linejoin:miter;stroke-opacity:1"
         id="rect4561"
         width="351.64328"
         height="81.961967"
         x="161.05968"
         y="84.533768" /></clipPath></defs><sodipodi:namedview
     pagecolor="#ffffff"
     bordercolor="#666666"
     borderopacity="1"
     objecttolerance="10"
     gridtolerance="10"
     guidetolerance="10"
     inkscape:pageopacity="0"
     inkscape:pageshadow="2"
     inkscape:window-width="3200"
     inkscape:window-height="1697"
     id="namedview3531"
     showgrid="false"
     fit-margin-top="0"
     fit-margin-left="0"
     fit-margin-right="0"
     fit-margin-bottom="0"
     inkscape:zoom="4.5386905"
     inkscape:cx="117.34186"
     inkscape:cy="40"
     inkscape:window-x="0"
     inkscape:window-y="1080"
     inkscape:window-maximized="1"
     inkscape:current-layer="Layer_1" /><style
     type="text/css"
     id="style3470">
	.st0{fill:url(#symbol_1_);}
	.st1{fill:url(#SVGID_1_);}
	.st2{fill:url(#SVGID_2_);}
	.st3{fill:url(#SVGID_3_);}
	.st4{fill:url(#SVGID_4_);}
	.st5{fill:url(#SVGID_5_);}
	.st6{fill:url(#SVGID_6_);}
	.st7{fill:url(#SVGID_7_);}
</style><g
     id="influxdb_logo"
     clip-path="url(#clipPath4559)"
     transform="translate(-163.7965,-85.1)"><linearGradient
       id="symbol_1_"
       gradientUnits="userSpaceOnUse"
       x1="205.32381"
       y1="125"
       x2="483.08841"
       y2="125"><stop
         offset="0"
         style="stop-color:#4591ED"
         id="stop3474" /><stop
         offset="1"
         style="stop-color:#00C9FF"
         id="stop3476" /></linearGradient><path
       id="symbol_2_"
       class="st0"
       d="m 242.5,133.3 -7.6,-33.2 C 234.5,98.3 232.8,96.5 231,96 L 196.1,85.3 c -0.5,-0.1 -1,-0.2 -1.5,-0.2 -1.5,0 -3.1,0.6 -4,1.5 l -25,23.2 c -1.3,1.2 -2.1,3.6 -1.7,5.4 l 8.1,35.5 c 0.4,1.8 2.1,3.6 3.9,4.1 l 32.6,10 c 0.5,0.1 1,0.2 1.5,0.2 1.5,0 3.1,-0.6 4,-1.5 l 26.7,-24.8 c 1.5,-1.2 2.2,-3.6 1.8,-5.4 z m -42.8,-40.2 23.9,7.3 c 0.9,0.3 0.9,0.7 0,0.9 l -12.6,2.9 c -1,0.2 -2.3,-0.2 -2.9,-0.9 l -8.8,-9.5 c -0.7,-0.6 -0.5,-0.9 0.4,-0.7 z m 14.9,42.9 c 0.2,1 -0.4,1.5 -1.3,1.2 l -25.8,-7.9 c -0.9,-0.3 -1.1,-1.1 -0.4,-1.7 l 19.8,-18.4 c 0.7,-0.7 1.5,-0.4 1.7,0.5 l 6,26.3 z m -42.5,-23.4 21,-19.5 c 0.7,-0.7 1.8,-0.6 2.5,0.1 l 10.5,11.3 c 0.7,0.7 0.6,1.8 -0.1,2.5 l -21,19.5 c -0.7,0.7 -1.8,0.6 -2.5,-0.1 L 172,115.1 c -0.6,-0.7 -0.6,-1.8 0.1,-2.5 z m 5.1,31 -5.6,-24.3 c -0.2,-1 0.1,-1.1 0.8,-0.4 l 8.8,9.5 c 0.7,0.7 1,2.1 0.7,3 l -3.8,12.3 c -0.2,0.8 -0.7,0.8 -0.9,-0.1 z m 30.7,14.1 -27.3,-8.4 c -0.9,-0.3 -1.5,-1.3 -1.2,-2.2 l 4.5,-14.8 c 0.3,-0.9 1.3,-1.5 2.2,-1.2 l 27.3,8.4 c 0.9,0.3 1.5,1.3 1.2,2.2 l -4.5,14.8 c -0.3,1 -1.3,1.5 -2.2,1.2 z m 24.3,-19.9 -18.3,17 c -0.7,0.7 -1.1,0.4 -0.8,-0.5 l 3.8,-12.3 c 0.3,-0.9 1.3,-1.9 2.3,-2.1 l 12.6,-2.9 c 0.9,-0.2 1.1,0.2 0.4,0.8 z m 2,-3.6 -15.1,3.4 c -1,0.2 -1.9,-0.4 -2.1,-1.3 l -6.4,-27.9 c -0.2,-1 0.4,-1.9 1.3,-2.1 l 15.1,-3.4 c 1,-0.2 1.9,0.4 2.1,1.3 l 6.4,27.9 c 0.2,0.9 -0.4,1.9 -1.3,2.1 z"
       inkscape:connector-curvature="0"
       style="fill:url(#symbol_1_)" /><g
       id="type_2_"><g
         id="g3480"><linearGradient
           id="SVGID_1_"
           gradientUnits="userSpaceOnUse"
           x1="205.32381"
           y1="120.5383"
           x2="483.08841"
           y2="120.5383"><stop
             offset="0"
             style="stop-color:#4591ED"
             id="stop3483" /><stop
             offset="1"
             style="stop-color:#00C9FF"
             id="stop3485" /></linearGradient><path
           class="st1"
           d="m 273.5,111.4 8.9,-1.2 -6.3,35.8 -8.7,0 6.1,-34.6 z m 2.6,-15.1 8.9,-1.2 -1.7,9.8 -8.9,1.3 1.7,-9.9 z"
           id="path3487"
           inkscape:connector-curvature="0"
           style="fill:url(#SVGID_1_)" /><linearGradient
           id="SVGID_2_"
           gradientUnits="userSpaceOnUse"
           x1="205.32381"
           y1="127.9909"
           x2="483.08841"
           y2="127.9909"><stop
             offset="0"
             style="stop-color:#4591ED"
             id="stop3490" /><stop
             offset="1"
             style="stop-color:#00C9FF"
             id="stop3492" /></linearGradient><path
           class="st2"
           d="m 310.2,120.9 c 0.1,-0.4 0.1,-0.8 0.1,-0.9 0,-0.9 -0.4,-1.5 -1.8,-1.5 -2.3,0 -7.2,2.2 -10.5,4.1 l -4.1,23.4 -8.7,0 6.1,-34.5 7.5,-1.3 -0.1,4.3 c 4.6,-2.5 10.1,-4.4 14.3,-4.4 4.8,0 6.4,3.2 6.4,7 0,1.4 -0.1,2.3 -0.4,3.5 l -4.5,25.5 -8.7,0 4.4,-25.2 z"
           id="path3494"
           inkscape:connector-curvature="0"
           style="fill:url(#SVGID_2_)" /><linearGradient
           id="SVGID_3_"
           gradientUnits="userSpaceOnUse"
           x1="205.32381"
           y1="127.9185"
           x2="483.08841"
           y2="127.9185"><stop
             offset="0"
             style="stop-color:#4591ED"
             id="stop3497" /><stop
             offset="1"
             style="stop-color:#00C9FF"
             id="stop3499" /></linearGradient><path
           class="st3"
           d="m 347.4,117.8 -8.1,0 -5.3,29.8 c -1,5.7 -3.1,9.3 -7.7,13.3 l -5.6,-5.2 c 2.8,-2.7 4.1,-5.1 4.7,-8.9 l 5.1,-29 -5.4,0 1.2,-7.1 5.4,0 0.9,-5.1 c 1.3,-7.5 4.3,-10.8 13.2,-10.8 2.9,0 6.7,0.4 11.1,1.4 l 8.9,-1.2 -9,50.9 -8.7,0 7.6,-43.1 c -3.5,-0.7 -7,-1.1 -9.8,-1.1 -3,0 -4.2,1 -4.6,3.5 l -0.9,5.4 8.8,0 -1.8,7.2 z"
           id="path3501"
           inkscape:connector-curvature="0"
           style="fill:url(#SVGID_3_)" /><linearGradient
           id="SVGID_4_"
           gradientUnits="userSpaceOnUse"
           x1="205.32381"
           y1="128.4249"
           x2="483.08841"
           y2="128.4249"><stop
             offset="0"
             style="stop-color:#4591ED"
             id="stop3504" /><stop
             offset="1"
             style="stop-color:#00C9FF"
             id="stop3506" /></linearGradient><path
           class="st4"
           d="m 376.1,135.8 c -0.1,0.5 -0.1,0.8 -0.1,0.9 0,0.9 0.4,1.5 1.8,1.5 2.3,0 7.2,-2.2 10.5,-4.1 l 4,-22.8 8.9,-1.2 -6.2,35.9 -7.4,0 0.1,-3.7 c -4.6,2.5 -10.1,4.4 -14.3,4.4 -4.8,0 -6.4,-3.2 -6.4,-7 0,-1.4 0.1,-2.3 0.4,-3.5 l 4.3,-24.8 8.9,-1.2 -4.5,25.6 z"
           id="path3508"
           inkscape:connector-curvature="0"
           style="fill:url(#SVGID_4_)" /><linearGradient
           id="SVGID_5_"
           gradientUnits="userSpaceOnUse"
           x1="205.32381"
           y1="128.0632"
           x2="483.08841"
           y2="128.0632"><stop
             offset="0"
             style="stop-color:#4591ED"
             id="stop3511" /><stop
             offset="1"
             style="stop-color:#00C9FF"
             id="stop3513" /></linearGradient><path
           class="st5"
           d="m 414.9,128.2 -7.6,-16.6 8.1,-1.5 5.3,12.5 8.7,-11.9 9.3,0 -14.4,18.6 7.7,16.7 -8.8,0 -4.8,-10.2 -8.5,10.2 -9.3,0 14.3,-17.8 z"
           id="path3515"
           inkscape:connector-curvature="0"
           style="fill:url(#SVGID_5_)" /><linearGradient
           id="SVGID_6_"
           gradientUnits="userSpaceOnUse"
           x1="205.32381"
           y1="120.9"
           x2="483.08841"
           y2="120.9"><stop
             offset="0"
             style="stop-color:#4591ED"
             id="stop3518" /><stop
             offset="1"
             style="stop-color:#00C9FF"
             id="stop3520" /></linearGradient><path
           class="st6"
           d="m 465.3,146 -7.4,0 0,-3.9 c -3,2.7 -6.8,4.6 -12,4.6 -6.1,0 -8.2,-3.3 -8.2,-8 0,-1.2 0.1,-2.4 0.4,-3.7 l 1.8,-10.3 c 1.6,-9 3.3,-14.7 17.1,-14.7 1.3,0 3.8,0.2 5.8,0.7 l 2.5,-14.3 8.9,-1.2 -8.9,50.8 z m -3.7,-28.2 c -1.6,-0.4 -3.9,-0.4 -5.1,-0.4 -5.6,0 -7,2.2 -7.8,6.9 l -2.2,12.4 c -0.1,0.4 -0.1,0.7 -0.1,0.9 0,1.3 0.9,1.9 2.5,1.9 3.7,0 8,-3 9.8,-5.3 l 2.9,-16.4 z"
           id="path3522"
           inkscape:connector-curvature="0"
           style="fill:url(#SVGID_6_)" /><linearGradient
           id="SVGID_7_"
           gradientUnits="userSpaceOnUse"
           x1="205.32381"
           y1="120.9"
           x2="483.08841"
           y2="120.9"><stop
             offset="0"
             style="stop-color:#4591ED"
             id="stop3525" /><stop
             offset="1"
             style="stop-color:#00C9FF"
             id="stop3527" /></linearGradient><path
           class="st7"
           d="m 483.1,96.3 8.9,-1.2 -3.2,18 c 3.9,-2.2 7.6,-3.1 11.1,-3.1 6.1,0 8.2,3.3 8.2,8 0,1.2 -0.1,2.4 -0.4,3.7 L 506,132 c -1.9,10.6 -5.5,14.7 -18.2,14.7 -3.3,0 -9.7,-1.1 -13.2,-2.3 l 8.5,-48.1 z m 1.1,42.6 c 1.6,0.3 3.3,0.5 5.1,0.5 5.6,0 7,-2.3 7.8,-6.9 l 2.2,-12.4 c 0.1,-0.4 0.1,-0.7 0.1,-0.9 0,-1.3 -0.9,-1.9 -2.5,-1.9 -2.7,0 -6.4,1.2 -9.5,3.3 l -3.2,18.3 z"
           id="path3529"
           inkscape:connector-curvature="0"
           style="fill:url(#SVGID_7_)" /></g></g></g></svg>